HIERARCHY
ROOT Hips
{
  OFFSET -331.093 83.8371 -317.828
  CHANNELS 6 Xposition Yposition Zposition Zrotation Xrotation Yrotation
  JOINT LeftUpLeg
  {
    OFFSET 8.64259 1.95398 -2.38835
    CHANNELS 3 Zrotation Xrotation Yrotation
    JOINT LeftLeg
    {
      OFFSET 43.7702 0 0
      CHANNELS 3 Zrotation Xrotation Yrotation
      JOINT LeftFoot
      {
        OFFSET 40.6238 0 0
        CHANNELS 3 Zrotation Xrotation Yrotation
        JOINT LeftToeBase
        {
          OFFSET 12.7242 0 0
          CHANNELS 3 Zrotation Xrotation Yrotation
          End Site
          {
            OFFSET 0 0 0
          }
        }
      }
    }
  }
  JOINT RightUpLeg
  {
    OFFSET -8.2249 1.95398 -2.59336
    CHANNELS 3 Zrotation Xrotation Yrotation
    JOINT RightLeg
    {
      OFFSET 43.5653 0 0
      CHANNELS 3 Zrotation Xrotation Yrotation
      JOINT RightFoot
      {
        OFFSET 40.6238 0 0
        CHANNELS 3 Zrotation Xrotation Yrotation
        JOINT RightToeBase
        {
          OFFSET 12.7242 0 0
          CHANNELS 3 Zrotation Xrotation Yrotation
          End Site
          {
            OFFSET 0 0 0
          }
        }
      }
    }
  }
  JOINT Spine
  {
    OFFSET 0.165834 0.87714 6.61349
    CHANNELS 3 Zrotation Xrotation Yrotation
    JOINT Spine1
    {
      OFFSET 7.38963 1.71661e-005 0
      CHANNELS 3 Zrotation Xrotation Yrotation
      JOINT Spine2
      {
        OFFSET 11.9445 1.14441e-005 0
        CHANNELS 3 Zrotation Xrotation Yrotation
        JOINT Spine3
        {
          OFFSET 14.7254 4.19617e-005 0
          CHANNELS 3 Zrotation Xrotation Yrotation
          JOINT Spine4
          {
            OFFSET 10.9679 0 0
            CHANNELS 3 Zrotation Xrotation Yrotation
            JOINT RightShoulder
            {
              OFFSET 2.46616 -1.6653 3.69651
              CHANNELS 3 Zrotation Xrotation Yrotation
              JOINT RightArm
              {
                OFFSET 13.0012 0 0
                CHANNELS 3 Zrotation Xrotation Yrotation
                JOINT RightForeArm
                {
                  OFFSET 28.7848 1.62311e-005 0
                  CHANNELS 3 Zrotation Xrotation Yrotation
                  JOINT RightHand
                  {
                    OFFSET 26.5688 1.62095e-005 0
                    CHANNELS 3 Zrotation Xrotation Yrotation
                    End Site
                    {
                      OFFSET 0 0 0
                    }
                  }
                }
              }
            }
            JOINT LeftShoulder
            {
              OFFSET 2.38034 -1.29275 -3.7523
              CHANNELS 3 Zrotation Xrotation Yrotation
              JOINT LeftArm
              {
                OFFSET 16.3182 6.07031e-005 0
                CHANNELS 3 Zrotation Xrotation Yrotation
                JOINT LeftForeArm
                {
                  OFFSET 27.0901 0 0
                  CHANNELS 3 Zrotation Xrotation Yrotation
                  JOINT LeftHand
                  {
                    OFFSET 24.5451 1.51738e-005 0
                    CHANNELS 3 Zrotation Xrotation Yrotation
                    End Site
                    {
                      OFFSET 0 0 0
                    }
                  }
                }
              }
            }
            JOINT Neck
            {
              OFFSET 5.0226 -0.0266342 0
              CHANNELS 3 Zrotation Xrotation Yrotation
              JOINT Head
              {
                OFFSET 6.69364 2.86102e-005 0
                CHANNELS 3 Zrotation Xrotation Yrotation
                End Site
                {
                  OFFSET 0 0 0
                }
              }
            }
          }
        }
      }
    }
  }
}
MOTION
Frames:	13
Frame Time:	0.0416667
-143.313 96.2865 -109.213 92.4537 -39.8004 90.8073 -175.794 25.2506 88.9998 -27.5346 10.9406 -1.79359 58.5918 0.700433 3.86741 38.9985 12.1643 11.3907 175.9 5.05628 95.1168 -31.7336 -2.09895 -4.6245 75.1756 -5.74167 -3.07463 34.9985 -0.623276 -2.96237 0.500715 7.69094 -89.9721 11.4926 1.00932 -0.0473298 -0.177955 1.00625 -0.0917185 -22.7161 0.976875 0.258222 -2.70347 0.976881 0.258228 89.7841 -40.7097 -103.185 18.4149 -13.3172 -7.51025 -11.4859 -9.64063 -51.6738 -10.9869 -0.642492 1.2015 -98.8554 -50.4307 66.3483 -17.7449 4.17618 12.1776 6.16534 5.03585 -47.1551 12.551 0.779166 2.2629 0.33346 -1.93549 3.31792 3.45486 -2.4137 -0.758783 
-147.043 97.5596 -112.375 92.5906 -39.2627 89.9872 -174.167 21.2724 88.8857 -36.7029 9.5434 -1.74517 57.8506 -0.15386 3.70895 43.149 13.7309 6.34339 175.442 7.26084 93.7978 -29.3463 -3.50096 -4.21328 71.0532 -3.69039 -2.18141 33.8379 -0.595775 -3.07294 0.385155 7.57696 -89.8517 11.7195 0.835676 0.207488 0.0487607 0.843994 0.170501 -22.488 0.734683 0.449069 -2.47537 0.734684 0.449062 90.1892 -41.3831 -102.306 19.9413 -15.0356 -2.43846 -11.5114 -9.57825 -52.5591 -9.51799 -0.515854 0.45962 -98.2777 -49.2598 66.7781 -17.8815 5.06752 10.8677 7.78995 5.45202 -50.162 11.485 0.747484 2.52339 -1.2887 -2.63783 0.896888 3.27876 -2.67071 1.00513 
-150.656 98.0901 -115.668 92.1655 -39.2879 89.2419 -172.75 16.1778 89.6974 -42.7349 8.40015 -1.44583 57.8182 -0.758222 2.47599 37.9228 10.8367 10.6014 175.164 10.0353 92.9961 -27.5271 -3.70869 -3.66468 68.7888 -2.63565 -1.63646 30.5068 -0.352875 -2.48736 0.221775 7.42366 -89.8122 12.026 0.529782 0.317323 0.355113 0.543226 0.293699 -22.1803 0.409917 0.461876 -2.16766 0.409911 0.46187 90.415 -41.5061 -101.89 21.3872 -16.7087 1.37644 -12.1474 -9.99032 -52.4242 -9.07837 -0.502218 0.458882 -97.5361 -48.5945 67.6354 -17.8703 4.4972 10.3515 10.6422 5.87145 -54.9927 9.14488 0.597827 2.42226 -1.21113 -2.79993 0.635353 2.14514 -2.81178 0.966323 
-154.445 97.3713 -119.172 91.8285 -39.4061 89.3508 -171.85 10.0427 91.4703 -45.3608 9.023 -0.805648 55.6134 -1.92488 3.25185 34.8167 6.38513 5.97134 175.688 13.5631 93.3703 -27.7791 -3.23259 -3.47238 69.3854 -2.98659 -1.79845 27.1512 -0.203815 -2.18976 -0.00435664 7.32055 -89.8614 12.2325 0.0571178 0.270221 0.561565 0.0689634 0.267444 -21.9734 -0.0267403 0.274898 -1.96072 -0.0267614 0.274888 90.1841 -42.0448 -102.131 21.5928 -16.7731 4.76909 -11.2751 -8.8388 -51.7996 -8.23351 -0.427441 -0.0567839 -96.8369 -47.9895 68.4659 -17.4637 3.33814 10.1287 10.9076 3.89426 -59.8953 8.17621 0.604786 3.15342 -0.259922 -2.4094 0.440326 0.768782 -2.40959 1.21411 
-158.634 95.9267 -123.127 91.0763 -39.2446 89.274 -172.061 4.73342 92.793 -45.5651 12.4618 0.0890789 53.5171 -3.94124 1.34549 35.0914 8.2209 10.6326 177.074 20.1153 93.957 -31.9602 -1.6185 -3.68577 68.9713 -2.91392 -1.79157 27.3329 -0.016825 -0.398927 -0.268105 7.29087 -89.9216 12.2927 -0.495602 0.212451 0.621802 -0.485758 0.234052 -21.9141 -0.53652 0.053683 -1.90145 -0.536532 0.0536755 90.8564 -41.2437 -101.213 22.0969 -16.3554 5.51005 -10.7946 -8.81894 -51.8308 -9.40401 -0.470291 -0.0836416 -96.4392 -47.6036 68.9299 -16.3039 0.73304 8.31995 11.8471 3.37689 -63.1513 8.76581 0.699916 3.72311 1.30965 -2.09582 0.240593 -0.0502966 -2.07877 1.37029 
-163.129 94.0538 -127.504 91.5529 -39.0739 90.3153 -172.871 -0.213964 93.4297 -45.484 17.7505 1.28299 54.9171 -2.90892 2.02104 41.1051 13.899 10.7635 178.764 26.3683 94.5043 -36.1644 0.0775308 -3.7289 67.4104 -2.54626 -1.59815 29.6694 -0.115605 -0.830691 -0.526713 7.38744 -90.0147 12.0996 -1.05398 0.0868448 0.429043 -1.04913 0.13315 -22.1093 -1.03135 -0.233966 -2.09661 -1.03134 -0.233967 90.9856 -41.5468 -100.913 21.5185 -15.1002 4.97285 -9.93941 -8.66946 -50.6224 -9.24089 -0.48822 0.346614 -96.6564 -47.7505 68.6543 -14.0961 -1.32987 7.01909 11.7906 2.80413 -65.2042 9.70593 0.749502 3.54844 1.42268 -1.83418 -0.167145 0.314272 -1.75029 1.5903 
-167.819 92.5394 -132.157 91.5339 -37.4122 90.7813 -174.526 -3.07213 93.1009 -44.2954 22.7694 2.67029 57.5617 -1.49811 0.86939 46.0159 22.3652 17.4898 179.716 31.2134 94.136 -36.8484 0.328028 -3.79165 65.0012 -1.51255 -1.02839 31.6208 -0.567937 -3.4313 -0.807996 7.45408 -90.0553 11.9676 -1.63261 0.0662187 0.297721 -1.6281 0.13802 -22.2454 -1.57699 -0.427632 -2.23276 -1.57701 -0.42764 90.9565 -42.5776 -100.696 21.281 -12.2578 4.72904 -10.7709 -9.46499 -49.1059 -9.47469 -0.622872 2.05157 -97.3191 -47.3785 67.5409 -12.3525 -2.21296 4.78078 12.229 3.25256 -64.748 10.6053 0.927229 4.55955 1.43855 -2.07508 -1.02131 0.780677 -1.85189 1.50473 
-172.929 91.8549 -137.493 91.2465 -36.6528 90.7702 -175.093 -2.29284 92.3067 -42.1574 23.9184 2.66531 60.8656 1.35037 2.79484 54.6473 30.0907 15.1593 -179.829 33.5293 93.0737 -32.4372 -0.349295 -3.73433 64.2472 -1.47852 -0.947524 37.0113 -1.15848 -5.29512 -0.879104 7.58437 -90.0831 11.7062 -1.78748 0.0212826 0.0365008 -1.7848 0.0999511 -22.5079 -1.71122 -0.517076 -2.49524 -1.71121 -0.517081 90.4596 -43.2905 -101.335 20.9329 -8.97085 4.02805 -8.8276 -7.23572 -46.8231 -9.03947 -0.564402 1.74648 -97.8792 -47.5134 66.7522 -10.6744 -2.53708 0.406904 12.2443 4.34962 -61.5588 11.3308 0.934159 4.14936 0.891157 -2.5479 -1.99511 2.16647 -2.15577 1.69351 
-178.769 91.7758 -143.247 91.723 -37.1859 90.1479 -173.512 0.470764 90.2513 -41.2609 18.6115 0.336637 67.0372 7.1335 6.20428 54.9697 28.2973 12.1077 -179.472 32.1412 91.8299 -23.1366 -0.72848 -3.85323 68.3145 -4.3017 -2.24255 39.0276 -1.07297 -4.24525 -0.831164 7.80365 -89.9017 11.27 -1.6083 0.35503 -0.400014 -1.59112 0.425481 -22.9431 -1.64064 -0.144873 -2.9305 -1.64062 -0.144877 89.4026 -44.8204 -102.653 19.6732 -6.63634 3.55232 -8.09998 -6.18361 -47.3288 -8.04797 -0.473781 1.2815 -97.494 -46.7242 67.0489 -10.4008 -2.28454 -2.40249 12.0816 4.86305 -59.7399 10.2769 0.813924 3.7767 1.00091 -2.91725 -3.89193 3.50323 -2.18689 2.24103 
-184.49 91.8819 -148.781 91.2344 -38.1834 89.0946 -173.243 5.23637 87.8279 -41.3829 15.7197 -1.19556 67.8171 10.6731 12.1479 58.0963 24.5709 2.15116 179.116 29.5243 91.4162 -12.1377 2.77108 -3.10452 67.1657 -4.80089 -2.3751 39.1571 -1.18315 -4.70416 -0.736874 7.89893 -89.765 11.0798 -1.35768 0.598485 -0.590604 -1.33002 0.657661 -23.1313 -1.47478 0.162694 -3.11867 -1.47476 0.162691 89.1354 -45.1133 -103.003 19.5175 -6.74911 2.90299 -6.02055 -3.51491 -49.9146 -9.89787 -0.54714 1.17509 -97.4348 -46.0145 66.886 -9.9829 -0.352423 -2.28872 10.7498 3.96683 -59.1332 11.8014 0.936048 3.87075 0.96913 -3.01606 -4.37153 4.67356 -2.17853 2.43688 
-189.016 92.685 -153.405 89.9396 -38.9384 87.9409 -173.928 9.30124 85.9751 -39.2722 11.9321 -1.68713 68.1847 11.8069 13.4591 54.3188 19.6181 -0.631815 177.963 31.7849 90.6066 -18.8928 4.08991 -2.29276 63.7962 -2.47677 -1.33594 34.0453 -0.803137 -4.38785 -0.582668 7.80385 -89.7466 11.269 -1.04155 0.607593 -0.401722 -1.01381 0.652842 -22.9398 -1.176 0.266448 -2.92716 -1.17599 0.266448 88.869 -45.2716 -103.387 19.452 -6.31264 3.59796 -5.82541 -3.35412 -53.6906 -9.78004 -0.449312 0.0408124 -97.7252 -46.6243 66.6658 -9.70096 2.96982 -0.713622 11.1466 4.41577 -58.6665 10.9996 0.87549 3.85471 1.66074 -2.65052 -3.64808 4.3538 -1.89627 2.66073 
-193.17 94.1992 -157.136 90.5105 -41.4911 88.6562 -173.755 11.6972 86.1165 -37.2462 8.46682 -2.33213 67.2859 8.61945 9.74621 48.2858 15.061 0.0389706 178.139 31.1417 91.2705 -30.1222 4.50451 -2.55922 63.1881 -1.84602 -1.05812 32.7411 -0.618229 -3.61566 -0.27247 7.79805 -89.7913 11.2785 -0.44498 0.459633 -0.392457 -0.424306 0.478765 -22.9279 -0.562536 0.304647 -2.91523 -0.562553 0.304642 89.0542 -44.365 -103.344 20.1075 -7.99152 2.41255 -6.54835 -2.85523 -53.9009 -11.9011 -0.628345 0.895934 -97.731 -47.2153 66.8676 -11.7959 5.04931 2.17056 10.4852 5.3177 -55.6465 12.8368 1.06184 4.24458 1.41538 -1.95417 -2.47181 3.91068 -1.42369 2.36769 
-197.035 95.9288 -160.186 91.766 -43.1538 90.3019 -173.43 12.5225 87.5987 -33.5516 9.22969 -2.85227 64.4103 4.89391 6.54176 41.7353 11.8686 4.91121 177.286 28.4004 91.9258 -41.7837 5.62268 -2.69561 62.9246 -1.31071 -0.861597 35.6849 -1.04839 -5.15341 -0.0453604 7.74894 -89.8848 11.376 -0.0365009 0.233081 -0.294991 -0.026213 0.234448 -22.83 -0.10487 0.211335 -2.81736 -0.104875 0.21133 89.219 -43.2274 -103.4 21.6458 -9.26808 1.33662 -7.29049 -3.90151 -53.078 -10.0077 -0.465772 -0.042467 -97.3929 -47.2496 67.3844 -15.604 6.16598 5.70248 8.72977 6.39365 -50.1887 12.3645 0.941517 3.598 -0.310204 -1.09219 -1.62739 3.83477 -0.714588 2.74426 
